q<?xml version="1.0" standalone="no"?><svg xmlns="http://www.w3.org/2000/svg" viewBox="0 0 1440 320"><path fill="#762A39" fill-opacity="1" d="M0,128L6.3,117.3C12.6,107,25,85,38,101.3C50.5,117,63,171,76,213.3C88.4,256,101,288,114,261.3C126.3,235,139,149,152,117.3C164.2,85,177,107,189,122.7C202.1,139,215,149,227,176C240,203,253,245,265,261.3C277.9,277,291,267,303,245.3C315.8,224,328,192,341,202.7C353.7,213,366,267,379,250.7C391.6,235,404,149,417,128C429.5,107,442,149,455,149.3C467.4,149,480,107,493,101.3C505.3,96,518,128,531,122.7C543.2,117,556,75,568,74.7C581.1,75,594,117,606,117.3C618.9,117,632,75,644,74.7C656.8,75,669,117,682,149.3C694.7,181,707,203,720,213.3C732.6,224,745,224,758,229.3C770.5,235,783,245,796,229.3C808.4,213,821,171,834,154.7C846.3,139,859,149,872,149.3C884.2,149,897,139,909,165.3C922.1,192,935,256,947,266.7C960,277,973,235,985,186.7C997.9,139,1011,85,1023,53.3C1035.8,21,1048,11,1061,10.7C1073.7,11,1086,21,1099,42.7C1111.6,64,1124,96,1137,144C1149.5,192,1162,256,1175,282.7C1187.4,309,1200,299,1213,261.3C1225.3,224,1238,160,1251,117.3C1263.2,75,1276,53,1288,90.7C1301.1,128,1314,224,1326,256C1338.9,288,1352,256,1364,208C1376.8,160,1389,96,1402,106.7C1414.7,117,1427,203,1434,245.3L1440,288L1440,0L1433.7,0C1427.4,0,1415,0,1402,0C1389.5,0,1377,0,1364,0C1351.6,0,1339,0,1326,0C1313.7,0,1301,0,1288,0C1275.8,0,1263,0,1251,0C1237.9,0,1225,0,1213,0C1200,0,1187,0,1175,0C1162.1,0,1149,0,1137,0C1124.2,0,1112,0,1099,0C1086.3,0,1074,0,1061,0C1048.4,0,1036,0,1023,0C1010.5,0,998,0,985,0C972.6,0,960,0,947,0C934.7,0,922,0,909,0C896.8,0,884,0,872,0C858.9,0,846,0,834,0C821.1,0,808,0,796,0C783.2,0,771,0,758,0C745.3,0,733,0,720,0C707.4,0,695,0,682,0C669.5,0,657,0,644,0C631.6,0,619,0,606,0C593.7,0,581,0,568,0C555.8,0,543,0,531,0C517.9,0,505,0,493,0C480,0,467,0,455,0C442.1,0,429,0,417,0C404.2,0,392,0,379,0C366.3,0,354,0,341,0C328.4,0,316,0,303,0C290.5,0,278,0,265,0C252.6,0,240,0,227,0C214.7,0,202,0,189,0C176.8,0,164,0,152,0C138.9,0,126,0,114,0C101.1,0,88,0,76,0C63.2,0,51,0,38,0C25.3,0,13,0,6,0L0,0Z"></path></svg>