<?xml version="1.0" standalone="no"?><svg xmlns="http://www.w3.org/2000/svg" viewBox="0 0 1440 320"><path fill="#762A39" fill-opacity="1" d="M0,160L13.3,154.7C26.7,149,53,139,80,149.3C106.7,160,133,192,160,176C186.7,160,213,96,240,101.3C266.7,107,293,181,320,202.7C346.7,224,373,192,400,165.3C426.7,139,453,117,480,101.3C506.7,85,533,75,560,106.7C586.7,139,613,213,640,245.3C666.7,277,693,267,720,229.3C746.7,192,773,128,800,117.3C826.7,107,853,149,880,181.3C906.7,213,933,235,960,245.3C986.7,256,1013,256,1040,218.7C1066.7,181,1093,107,1120,69.3C1146.7,32,1173,32,1200,37.3C1226.7,43,1253,53,1280,53.3C1306.7,53,1333,43,1360,37.3C1386.7,32,1413,32,1427,32L1440,32L1440,0L1426.7,0C1413.3,0,1387,0,1360,0C1333.3,0,1307,0,1280,0C1253.3,0,1227,0,1200,0C1173.3,0,1147,0,1120,0C1093.3,0,1067,0,1040,0C1013.3,0,987,0,960,0C933.3,0,907,0,880,0C853.3,0,827,0,800,0C773.3,0,747,0,720,0C693.3,0,667,0,640,0C613.3,0,587,0,560,0C533.3,0,507,0,480,0C453.3,0,427,0,400,0C373.3,0,347,0,320,0C293.3,0,267,0,240,0C213.3,0,187,0,160,0C133.3,0,107,0,80,0C53.3,0,27,0,13,0L0,0Z"></path></svg>