<?xml version="1.0" standalone="no"?><svg xmlns="http://www.w3.org/2000/svg" viewBox="0 0 1440 320"><path fill="#762A39" fill-opacity="1" d="M0,160L8.9,149.3C17.8,139,36,117,53,112C71.1,107,89,117,107,144C124.4,171,142,213,160,213.3C177.8,213,196,171,213,181.3C231.1,192,249,256,267,277.3C284.4,299,302,277,320,245.3C337.8,213,356,171,373,165.3C391.1,160,409,192,427,192C444.4,192,462,160,480,128C497.8,96,516,64,533,42.7C551.1,21,569,11,587,48C604.4,85,622,171,640,213.3C657.8,256,676,256,693,234.7C711.1,213,729,171,747,154.7C764.4,139,782,149,800,154.7C817.8,160,836,160,853,144C871.1,128,889,96,907,74.7C924.4,53,942,43,960,42.7C977.8,43,996,53,1013,80C1031.1,107,1049,149,1067,170.7C1084.4,192,1102,192,1120,213.3C1137.8,235,1156,277,1173,245.3C1191.1,213,1209,107,1227,58.7C1244.4,11,1262,21,1280,69.3C1297.8,117,1316,203,1333,218.7C1351.1,235,1369,181,1387,149.3C1404.4,117,1422,107,1431,101.3L1440,96L1440,0L1431.1,0C1422.2,0,1404,0,1387,0C1368.9,0,1351,0,1333,0C1315.6,0,1298,0,1280,0C1262.2,0,1244,0,1227,0C1208.9,0,1191,0,1173,0C1155.6,0,1138,0,1120,0C1102.2,0,1084,0,1067,0C1048.9,0,1031,0,1013,0C995.6,0,978,0,960,0C942.2,0,924,0,907,0C888.9,0,871,0,853,0C835.6,0,818,0,800,0C782.2,0,764,0,747,0C728.9,0,711,0,693,0C675.6,0,658,0,640,0C622.2,0,604,0,587,0C568.9,0,551,0,533,0C515.6,0,498,0,480,0C462.2,0,444,0,427,0C408.9,0,391,0,373,0C355.6,0,338,0,320,0C302.2,0,284,0,267,0C248.9,0,231,0,213,0C195.6,0,178,0,160,0C142.2,0,124,0,107,0C88.9,0,71,0,53,0C35.6,0,18,0,9,0L0,0Z"></path></svg>